<?xml version="1.0" encoding="UTF-8"?>
<svg width="345px" height="82px" viewBox="0 0 345 82" version="1.1" xmlns="http://www.w3.org/2000/svg" xmlns:xlink="http://www.w3.org/1999/xlink">
    <!-- Generator: Sketch 52.2 (67145) - http://www.bohemiancoding.com/sketch -->
    <title>element</title>
    <desc>Created with Sketch.</desc>
    <g id="Page-2" stroke="none" stroke-width="1" fill="none" fill-rule="evenodd">
        <g id="Artboard" transform="translate(-303.000000, -37.000000)" fill="#409EFF">
            <g id="element" transform="translate(303.000000, 37.000000)">
                <path d="M304.585493,56.4457956 C304.585493,56.4457956 305.196348,56.430049 306.356088,56.4457956 C307.515828,56.4615422 307.831585,57.3371095 307.831585,57.3371095 C307.831585,57.3371095 310.158737,61.6436418 310.782575,62.6849937 C311.337953,63.6119603 310.672208,63.5950254 310.519052,63.5798731 C310.520528,63.5777933 310.487478,63.5763078 310.487478,63.5763078 C310.487478,63.5763078 310.500167,63.5780904 310.519052,63.5798731 C310.512266,63.5893805 309.86039,63.6110691 303.109998,63.5763078 C293.696336,62.2910329 293.371727,53.7718535 293.371727,53.7718535 L293.371727,38.6195148 L288.059942,38.6195148 L288.059942,32.974526 C288.059942,32.2050249 288.94524,32.0832119 288.94524,32.0832119 L293.371727,32.0832119 L293.371727,26.4382229 C293.371727,25.5174957 294.257024,25.2498043 294.257024,25.2498043 C294.257024,25.2498043 297.372681,24.3537365 299.185475,23.8320208 C299.92942,23.6181053 300.159006,24.0613856 300.159006,24.0613856 C300.159006,24.0613856 300.454106,23.9039202 300.454106,24.5842897 L300.454106,32.3803165 L308.126683,32.3803165 C308.87358,32.3803165 309.01198,33.2716306 309.01198,33.2716306 L309.01198,38.9166196 L300.454106,38.9166196 L300.454106,51.9892253 C300.454106,55.788897 304.585493,56.4457956 304.585493,56.4457956 Z M281.86286,62.9820985 L277.141273,62.9820985 C276.214957,62.9820985 276.255976,61.7936798 276.255976,61.7936798 L276.255976,39.8079334 C276.255976,38.472448 274.485381,38.0253054 274.485381,38.0253054 L264.747109,38.0253054 C263.294337,38.0253054 263.271614,39.8079334 263.271614,39.8079334 L263.271614,62.0907843 C263.271614,62.9645692 262.386317,62.9820985 262.386317,62.9820985 L257.66473,62.9820985 C256.626573,62.9820985 256.779433,61.7936798 256.779433,61.7936798 L256.779433,34.1629447 C256.779433,31.9435726 259.435325,31.4890026 259.435325,31.4890026 L280.092265,31.4890026 C282.155009,31.4890026 282.748158,34.1629447 282.748158,34.1629447 L282.748158,61.496575 C282.748158,63.0507296 281.86286,62.9820985 281.86286,62.9820985 Z M248.221558,50.5037021 L229.925412,50.5037021 L229.925412,54.9602722 C229.925412,56.5661228 231.991107,57.0400049 231.991107,57.0400049 L246.746063,57.0400049 C247.796026,57.0400049 248.516658,57.931319 248.516658,57.931319 C248.516658,57.931319 249.804175,60.6263554 250.287253,61.7936798 C250.770331,62.961004 249.401955,62.9820985 249.401955,62.9820985 L227.26952,62.9820985 C224.604184,62.9820985 224.02343,59.713947 224.02343,59.713947 L224.02343,34.4600492 C224.02343,33.0078016 226.089123,32.3803165 226.089123,32.3803165 L248.221558,32.3803165 C250.445721,32.3803165 250.87745,35.0542586 250.87745,35.0542586 L250.87745,47.82976 C250.87745,49.9852543 248.221558,50.5037021 248.221558,50.5037021 Z M244.975468,39.8079334 C244.975468,39.8079334 244.789556,38.3224102 243.499973,38.3224102 L231.400907,38.3224102 C231.400907,38.3224102 229.925412,38.7208275 229.925412,39.8079334 L229.925412,43.0760851 C229.925412,43.0760851 229.967907,44.5616083 231.400907,44.5616083 L243.499973,44.5616083 C243.499973,44.5616083 244.975468,44.1946842 244.975468,42.7789803 L244.975468,39.8079334 Z M217.236148,62.9820985 L212.514564,62.9820985 C211.891609,62.9820985 211.629266,62.0907843 211.629266,62.0907843 L211.629266,39.8079334 C211.629266,38.4260997 209.858671,38.0253054 209.858671,38.0253054 L205.432184,38.0253054 C204.197193,38.0253054 203.956687,39.8079334 203.956687,39.8079334 L203.956687,62.0907843 C203.956687,62.8299809 203.07139,62.9820985 203.07139,62.9820985 L198.349805,62.9820985 C197.693208,62.9820985 197.464507,62.0907843 197.464507,62.0907843 L197.464507,39.8079334 C197.464507,38.3952008 195.693913,38.0253054 195.693913,38.0253054 L191.267425,38.0253054 C189.916756,38.0253054 189.791928,39.8079334 189.791928,39.8079334 L189.791928,62.0907843 C189.791928,63.0444905 188.906631,62.9820985 188.906631,62.9820985 L184.185046,62.9820985 C183.300632,62.9820985 183.299749,62.0907843 183.299749,62.0907843 L183.299749,33.8658399 C183.299749,32.230873 185.660541,31.4890026 185.660541,31.4890026 L215.170456,31.4890026 C217.539217,31.4890026 218.121446,34.4600492 218.121446,34.4600492 L218.121446,62.0907843 C218.121446,63.1169839 217.236148,62.9820985 217.236148,62.9820985 Z M174.446774,50.5037021 L156.150626,50.5037021 L156.150626,54.9602722 C156.150626,56.5661228 158.216321,57.0400049 158.216321,57.0400049 L172.971277,57.0400049 C174.021242,57.0400049 174.741872,57.931319 174.741872,57.931319 C174.741872,57.931319 176.029095,60.6263554 176.512467,61.7936798 C176.995545,62.961004 175.62717,62.9820985 175.62717,62.9820985 L153.494736,62.9820985 C150.8294,62.9820985 150.248644,59.713947 150.248644,59.713947 L150.248644,34.4600492 C150.248644,33.0078016 152.314339,32.3803165 152.314339,32.3803165 L174.446774,32.3803165 C176.670935,32.3803165 177.102667,35.0542586 177.102667,35.0542586 L177.102667,47.82976 C177.102667,49.9852543 174.446774,50.5037021 174.446774,50.5037021 Z M171.200682,39.8079334 C171.200682,39.8079334 171.01477,38.3224102 169.725187,38.3224102 L157.626123,38.3224102 C157.626123,38.3224102 156.150626,38.7208275 156.150626,39.8079334 L156.150626,43.0760851 C156.150626,43.0760851 156.193121,44.5616083 157.626123,44.5616083 L169.725187,44.5616083 C169.725187,44.5616083 171.200682,44.1946842 171.200682,42.7789803 L171.200682,39.8079334 Z M134.60839,62.9820985 C134.60839,62.9820985 126.402273,62.5922972 125.755416,54.3660628 C125.729448,45.9178913 125.755416,19.6048153 125.755416,19.6048153 L131.067201,19.6048153 C131.067201,19.6048153 132.837796,19.5724309 132.837796,21.3874435 L132.837796,52.5834346 C132.837796,52.5834346 133.454847,55.164086 136.969183,56.1486908 C140.940038,56.1284877 141.69077,56.1486908 141.69077,56.1486908 C141.69077,56.1486908 143.229711,55.6525261 144.346662,57.6342143 C145.463612,59.6159024 146.707455,61.7936798 146.707455,61.7936798 C146.707455,61.7936798 146.885105,62.9820985 145.822157,62.9820985 L134.60839,62.9820985 Z M88.8680244,61.1994705 L88.8680244,21.9816528 C88.8680244,20.2426991 90.3435194,19.9019201 90.3435194,19.9019201 L118.082839,19.9019201 C119.634175,19.9019201 118.968137,21.6845481 118.968137,21.6845481 C118.968137,21.6845481 118.103495,24.0952555 117.49264,25.2498043 C116.881785,26.4043531 115.722045,26.4382229 115.722045,26.4382229 L97.7209986,26.4382229 C96.0448345,26.4382229 95.9504038,27.9237464 95.9504038,27.9237464 L95.9504038,37.7282007 L116.312244,37.7282007 C117.506804,37.7282007 116.902442,39.2137241 116.902442,39.2137241 C116.902442,39.2137241 115.37737,42.4866294 114.836747,43.3731896 C114.296127,44.2597501 113.066152,44.2645038 113.066152,44.2645038 L95.9504038,44.2645038 L95.9504038,54.6631674 C95.9504038,56.0803568 97.4258988,56.4457956 97.4258988,56.4457956 L116.312244,56.4457956 C117.681799,56.4457956 118.082839,57.3371095 118.082839,57.3371095 C118.082839,57.3371095 119.953178,60.2751777 120.738732,61.496575 C121.524579,62.7179724 120.443632,62.9820985 120.443632,62.9820985 L90.6386192,62.9820985 C89.4077592,62.9820985 88.8680244,61.1994705 88.8680244,61.1994705 Z M71.3957591,58.7326103 C71.3753956,62.1356472 69.6183757,62.8947497 69.6183757,62.8947497 C69.6183757,62.8947497 39.2987103,80.520782 37.3274481,81.62512 C35.374187,82.4686 34.0686684,81.62512 34.0686684,81.62512 C34.0686684,81.62512 2.34344522,63.1140129 1.18547616,62.3002432 C0.0272121716,61.4864735 0.000358198427,60.2190249 0.000358198427,60.2190249 C0.000358198427,60.2190249 0.0322288456,23.5640323 0.000358198427,21.8666733 C-0.0315126632,20.1690172 2.07401965,18.8935469 2.07401965,18.8935469 L33.7723889,0.460578271 C35.7238793,-0.575722839 37.6237276,0.460578271 37.6237276,0.460578271 C37.6237276,0.460578271 65.6262752,16.836097 68.7295371,18.596145 C71.7711249,20.0510666 71.3957591,23.0556863 71.3957591,23.0556863 C71.3957591,23.0556863 71.4146449,55.5699309 71.3957591,58.7326103 Z M58.7398773,21.9439205 C52.2494668,18.1855464 36.9597901,9.27270309 36.9597901,9.27270309 C36.9597901,9.27270309 35.4680641,8.46160721 33.9359094,9.27270309 L9.0487236,23.6983237 C9.0487236,23.6983237 7.39557821,24.6968925 7.42066158,26.0252474 C7.44574495,27.3536025 7.42066158,56.0402475 7.42066158,56.0402475 C7.42066158,56.0402475 7.44161368,57.0322801 8.35110907,57.6689756 C9.26030953,58.3056708 34.1684475,72.7927921 34.1684475,72.7927921 C34.1684475,72.7927921 35.1936219,73.4529585 36.726957,72.7927921 C38.274752,71.9285145 62.0795142,58.1342414 62.0795142,58.1342414 C62.0795142,58.1342414 63.4591028,57.5400321 63.475038,54.8767858 C63.4794646,54.1087701 63.4812352,51.1276217 63.4815301,47.3820231 L35.4550797,64.4676219 L35.4550797,57.931319 C35.4550797,55.2466811 37.5207737,53.4747487 37.5207737,53.4747487 L62.3105768,38.4463027 C63.2460411,37.4634805 63.4390359,35.8891228 63.4788743,35.2937251 C63.4779891,32.5636301 63.4768086,30.178771 63.4759234,28.6679937 L35.4550797,45.7500272 L35.4550797,38.9166196 C35.4550797,36.2319816 37.2256745,35.0542586 37.2256745,35.0542586 L58.7398773,21.9439205 Z" id="Shape-Copy" fill-rule="nonzero"></path>
                <path d="M318,13.1093117 L327.741379,13.1093117 L327.741379,2 L333.258621,2 C333.810905,2 334.258621,2.44771525 334.258621,3 L334.258621,13.1093117 L344,13.1093117 C344.552285,13.1093117 345,13.557027 345,14.1093117 L345,18.8906883 L334.258621,18.8906883 L334.258621,29 C334.258621,29.5522847 333.810905,30 333.258621,30 L328.741379,30 C328.189095,30 327.741379,29.5522847 327.741379,29 L327.741379,18.8906883 L317,18.8906883 L317,14.1093117 C317,13.557027 317.447715,13.1093117 318,13.1093117 Z" id="+"></path>
            </g>
        </g>
    </g>
</svg>