<svg xmlns="http://www.w3.org/2000/svg" viewBox="0 0 38 48" width="38" height="48">
	<style>
		tspan { white-space:pre }
		.shp0 { fill: #409eff } 
		.txt1 { font-size: 14px;fill: #409eff;font-weight: 400;font-family: "DejaVuSans", "DejaVu Sans" } 
	</style>
	<g id="v2.2.0">
		<g id="首页-默认效果-copy-2">
			<path id="Shape-Copy" fill-rule="evenodd" class="shp0" d="M32.59 39.15C32.59 39.15 18.45 47.31 17.53 47.83C16.62 48.22 16.01 47.83 16.01 47.83C16.01 47.83 1.22 39.25 0.68 38.87C0.14 38.49 0.13 37.91 0.13 37.91C0.13 37.91 0.15 20.92 0.13 20.13C0.12 19.35 1.1 18.76 1.1 18.76L15.88 10.21C16.79 9.73 17.67 10.21 17.67 10.21C17.67 10.21 30.73 17.8 32.17 18.62C33.59 19.29 33.42 20.68 33.42 20.68C33.42 20.68 33.43 35.75 33.42 37.22C33.41 38.79 32.59 39.15 32.59 39.15ZM27.52 20.17C24.49 18.43 17.36 14.3 17.36 14.3C17.36 14.3 16.67 13.92 15.95 14.3L4.35 20.98C4.35 20.98 3.58 21.44 3.59 22.06C3.6 22.68 3.59 35.97 3.59 35.97C3.59 35.97 3.6 36.43 4.02 36.72C4.45 37.02 16.06 43.73 16.06 43.73C16.06 43.73 16.54 44.04 17.25 43.73C17.97 43.33 29.07 36.94 29.07 36.94C29.07 36.94 29.72 36.66 29.72 35.43C29.73 35.07 29.73 33.69 29.73 31.96L16.66 39.88L16.66 36.85C16.66 35.6 17.62 34.78 17.62 34.78L29.18 27.82C29.62 27.36 29.71 26.63 29.73 26.36C29.73 25.09 29.72 23.99 29.72 23.29L16.66 31.2L16.66 28.03C16.66 26.79 17.49 26.24 17.49 26.24L27.52 20.17Z" />
		</g>
		<text id="+ " style="transform: matrix(1,0,0,1,27,-1)" >
			<tspan x="0" y="14" class="txt1">+</tspan>
		</text>
	</g>
</svg>