<svg width="343" height="289" viewBox="0 0 343 289" fill="none" xmlns="http://www.w3.org/2000/svg">
<path d="M171.044 80.553C257.922 80.553 261.236 163.53 255.686 183.511L169.102 229.856C144.125 217.83 92.674 191.226 86.6797 181.013C79.1868 168.248 88.0672 80.553 171.044 80.553Z" fill="#428BFB"/>
<path d="M134.134 169.635C129.972 162.42 131.359 126.065 134.967 112.467C123.312 128.841 126.457 156.685 127.752 169.635C131.267 172.04 137.465 175.408 134.134 169.635Z" fill="#2671E5"/>
<path d="M212.236 169.635C216.399 162.42 215.011 126.065 211.404 112.467C223.059 128.841 219.914 156.685 218.619 169.635C215.104 172.04 208.906 175.408 212.236 169.635Z" fill="#2671E5"/>
<path d="M117.567 137.77L123.312 195.999L159.944 207.655H219.887L227.793 137.818C228.016 135.843 226.471 134.113 224.484 134.113H120.881C118.913 134.113 117.374 135.812 117.567 137.77Z" fill="#ECE6E6"/>
<path fill-rule="evenodd" clip-rule="evenodd" d="M134.504 199.384L160.499 207.655H220.442L228.348 137.818C228.571 135.843 227.026 134.113 225.039 134.113H204.174L134.504 199.384Z" fill="#DDD7D7"/>
<path fill-rule="evenodd" clip-rule="evenodd" d="M181.983 172.067C181.983 173 181.517 173.175 181.517 173.175C181.517 173.175 173.233 177.958 172.708 178.25C172.417 178.367 172.125 178.367 171.833 178.25C171.833 178.25 163.2 173.233 162.908 173C162.733 172.883 162.617 172.65 162.558 172.417C162.558 172.417 162.558 162.5 162.558 162.033C162.558 161.567 163.142 161.275 163.142 161.275L171.775 156.317C172.125 156.142 172.475 156.142 172.825 156.317C172.825 156.317 180.467 160.75 181.283 161.217C181.75 161.45 182.042 161.917 181.983 162.442C181.983 162.383 181.983 171.192 181.983 172.067ZM178.542 162.15C176.792 161.158 172.592 158.708 172.592 158.708C172.358 158.592 172.008 158.592 171.775 158.708L165.008 162.617C165.008 162.617 164.542 162.908 164.542 163.258C164.542 163.608 164.542 171.367 164.542 171.367C164.542 171.542 164.658 171.717 164.775 171.833C165.008 172.008 171.775 175.917 171.775 175.917C172.008 176.033 172.242 176.033 172.475 175.917C172.883 175.683 179.358 171.95 179.358 171.95C179.358 171.95 179.708 171.775 179.708 171.075C179.708 170.842 179.708 170.083 179.708 169.033L172.125 173.642V171.892C172.125 171.425 172.358 171.017 172.708 170.667L179.475 166.583C179.65 166.35 179.767 166.058 179.767 165.708C179.767 164.95 179.767 164.308 179.767 163.9L172.125 168.508V166.642C172.125 166.233 172.3 165.825 172.592 165.592L178.542 162.15Z" fill="#409EFF"/>
<path fill-rule="evenodd" clip-rule="evenodd" d="M184.142 155.733C184.142 155.617 184.025 155.5 183.908 155.5H182.275V153.808C182.275 153.692 182.158 153.692 181.983 153.692L181.167 153.808C181.05 153.808 180.992 153.867 180.992 153.925V155.5H179.417C179.3 155.5 179.242 155.617 179.183 155.675V156.725H181.05V158.475C181.05 158.592 181.167 158.65 181.342 158.592L182.158 158.475C182.275 158.475 182.333 158.417 182.333 158.358V156.725H184.2V155.733H184.142Z" fill="#409EFF"/>
<path opacity="0.6" d="M342.245 260.554C342.245 278.593 265.833 288.861 171.573 288.861C77.3139 288.861 0.901611 279.703 0.901611 260.554C0.901611 241.406 77.3139 232.248 171.573 232.248C265.833 232.248 342.245 240.573 342.245 260.554Z" fill="#F1F7FF"/>
<path d="M156.891 84.9933C144.957 77.5004 139.962 58.6294 139.407 50.0264C139.685 44.4761 140.739 31.7104 142.737 25.0501C145.235 16.7246 181.867 18.3897 191.857 20.8874C201.848 23.385 200.183 32.8205 200.738 50.0264C201.293 67.2323 189.36 80.8305 185.752 84.1607C182.144 87.4909 168.824 92.4862 156.891 84.9933Z" fill="#FBBDA4"/>
<path d="M171.322 105.252C159.666 105.807 156.336 101.089 153.838 96.0938L159.111 79.9979H182.7L186.307 96.6488C185.197 99.3315 180.646 104.808 171.322 105.252Z" fill="#FBBDA4"/>
<path d="M205.456 61.9595C207.121 57.7968 203.791 52.2465 200.46 52.2465C198.24 57.1492 194.411 67.0657 196.853 67.5098C199.905 68.0648 203.791 66.1222 205.456 61.9595Z" fill="#FBBDA4"/>
<path d="M137.059 61.615C135.714 57.3381 139.455 52.0559 142.776 52.3081C144.618 57.365 147.686 67.543 145.217 67.8008C142.131 68.1231 138.404 65.8918 137.059 61.615Z" fill="#FBBDA4"/>
<path d="M186.862 2.57136C177.982 -1.86887 170.489 2.84886 162.996 7.84412C158.648 7.3816 148.51 8.45466 142.738 16.4471C136.965 24.4395 137.1 45.766 139.302 53.8245C140.099 53.1714 141.162 52.5333 142.727 52.4706C142.727 51.9155 141.905 38.3708 142.738 35.8731C143.57 33.3755 143.848 28.6577 149.12 27.5477C154.393 26.4376 160.221 31.4329 172.154 31.4329C184.087 31.4329 186.03 27.8252 192.69 27.2702C196.02 27.8252 198.518 29.2128 199.906 34.208C201.016 38.2042 200.461 48.2688 200.183 52.524C200.758 52.524 202.236 52.2727 203.625 53.8599C203.663 53.7182 203.682 53.613 203.704 53.5284C206.155 44.3409 203.446 24.8764 200.738 17.8347C198.518 12.0624 193.708 10.0642 191.58 9.78673C192.783 9.1392 191.303 4.79147 186.862 2.57136Z" fill="#190E02"/>
<path opacity="0.6" d="M102.22 259.272C108.603 259.55 112.211 260.937 120.814 260.105L126.642 236.239L107.771 234.851C106.106 236.424 101.554 239.291 96.6701 239.291C90.5648 239.291 80.5743 241.789 73.0814 244.564C64.4306 247.768 57.818 256.22 56.9855 259.272C56.7079 260.937 58.6506 263.713 63.9234 262.325C69.1962 260.937 95.8376 258.995 102.22 259.272Z" fill="#70A2EB"/>
<path fill-rule="evenodd" clip-rule="evenodd" d="M108.049 259.807C106.223 259.588 104.38 259.366 102.219 259.272C95.8366 258.995 69.1952 260.938 63.9224 262.325C63.8589 262.342 63.796 262.358 63.7335 262.373C65.0229 259.835 69.6345 254.13 76.4095 250.392C84.4574 245.952 94.4479 244.287 101.386 243.732C108.324 243.177 110.821 241.512 115.539 237.626L122.974 251.256L120.813 260.105C115.122 260.656 111.617 260.235 108.049 259.807Z" fill="#3678D8"/>
<path d="M287.045 260.383C286.532 262.95 284.548 263.713 280.385 262.325L260.681 257.607L227.102 259.55L220.997 249.282L225.992 237.626C229.507 236.886 237.092 236.239 239.313 236.239C240.7 237.626 244.863 239.553 251.801 239.847C271.504 240.679 281.773 250.947 283.993 253.445C286.213 255.942 287.6 257.607 287.045 260.383Z" fill="#70A2EB"/>
<path d="M245.14 244.009C236.815 243.177 237.092 241.234 228.767 241.512C227.287 247.432 224.937 259.383 227.379 259.827C230.432 260.383 240.148 259.735 252.356 260.105C261.514 260.383 267.897 260.938 280.385 262.325C275.667 250.392 253.466 244.842 245.14 244.009Z" fill="#3678D8"/>
<path d="M174.374 213.205C161.886 209.32 146.9 200.439 127.474 191.836C125.254 190.844 108.881 183.788 96.3925 181.846C83.9043 179.903 66.9759 184.899 65.8659 200.162C64.7558 215.425 92.5074 232.909 115.819 240.956C139.13 249.004 192.968 256.22 205.733 258.162C218.499 260.105 226.824 262.88 231.542 258.995C236.26 255.11 236.26 245.119 231.542 240.124C226.824 235.129 186.862 217.09 174.374 213.205Z" fill="#3F3C7E"/>
<path d="M173.819 219.865C161.331 211.725 131.914 195.999 109.158 192.114C126.031 196.998 166.881 219.31 168.269 223.751L173.819 219.865Z" fill="#302B7A"/>
<path d="M280.385 196.832C279.357 192.836 272.614 180.181 250.968 181.846C230.155 184.621 209.986 197.015 187.972 206.822C162.718 217.09 138.575 225.416 126.364 232.909C113.989 240.503 109.158 244.287 111.656 253.445C116.096 261.493 113.876 263.158 141.905 258.995C176.327 253.883 223.372 246.756 252.356 231.521C274.002 220.143 282.882 206.545 280.385 196.832Z" fill="#504D84"/>
</svg>
