<svg width="473" height="327" viewBox="0 0 473 327" fill="none" xmlns="http://www.w3.org/2000/svg">
<g filter="url(#filter0_dd_6407_141432)">
<path fill-rule="evenodd" clip-rule="evenodd" d="M24.6518 16.1391C22.1995 16.1391 20.2115 18.1271 20.2115 20.5794V284.773C20.2115 287.226 22.1995 289.214 24.6518 289.214H155.084L168.127 301.979L180.615 289.214H447.584C450.037 289.214 452.025 287.226 452.025 284.773V20.5794C452.025 18.1271 450.037 16.1391 447.584 16.1391H24.6518Z" fill="white"/>
</g>
<rect x="121.227" y="210.954" width="103.235" height="43.2923" rx="21.6461" fill="#E4EFFF"/>
<rect x="247.219" y="210.954" width="103.235" height="43.2923" rx="21.6461" fill="#3F85ED"/>
<rect x="59.0637" y="107.164" width="354.109" height="21.6461" rx="4.44024" fill="#E4EFFF"/>
<rect x="115.122" y="148.236" width="241.993" height="21.6461" rx="4.44024" fill="#E4EFFF"/>
<rect x="151.754" y="48.8859" width="170.949" height="32.1917" rx="4.44024" fill="#91BEFF"/>
<defs>
<filter id="filter0_dd_6407_141432" x="0.230488" y="0.598305" width="471.775" height="325.802" filterUnits="userSpaceOnUse" color-interpolation-filters="sRGB">
<feFlood flood-opacity="0" result="BackgroundImageFix"/>
<feColorMatrix in="SourceAlpha" type="matrix" values="0 0 0 0 0 0 0 0 0 0 0 0 0 0 0 0 0 0 127 0" result="hardAlpha"/>
<feMorphology radius="2.22012" operator="dilate" in="SourceAlpha" result="effect1_dropShadow_6407_141432"/>
<feOffset dy="4.44024"/>
<feGaussianBlur stdDeviation="8.88047"/>
<feColorMatrix type="matrix" values="0 0 0 0 0.039009 0 0 0 0 0.13338 0 0 0 0 0.232469 0 0 0 0.12 0"/>
<feBlend mode="normal" in2="BackgroundImageFix" result="effect1_dropShadow_6407_141432"/>
<feColorMatrix in="SourceAlpha" type="matrix" values="0 0 0 0 0 0 0 0 0 0 0 0 0 0 0 0 0 0 127 0" result="hardAlpha"/>
<feOffset/>
<feGaussianBlur stdDeviation="2.22012"/>
<feColorMatrix type="matrix" values="0 0 0 0 0.0392157 0 0 0 0 0.133333 0 0 0 0 0.231373 0 0 0 0.06 0"/>
<feBlend mode="normal" in2="effect1_dropShadow_6407_141432" result="effect2_dropShadow_6407_141432"/>
<feBlend mode="normal" in="SourceGraphic" in2="effect2_dropShadow_6407_141432" result="shape"/>
</filter>
</defs>
</svg>
