<svg width="1163" height="728" viewBox="0 0 1163 728" fill="none" xmlns="http://www.w3.org/2000/svg">
<g clip-path="url(#clip0_6407_141381)">
<rect x="0.50882" y="0.0586548" width="1161.12" height="727.089" fill="#E4EFFF"/>
<rect x="0.50882" y="0.0586548" width="1161.12" height="66.6035" fill="#3F85ED"/>
<circle cx="58.787" cy="31.6954" r="7.77041" fill="#FD873B"/>
<circle cx="93.1988" cy="31.6954" r="7.77041" fill="#FFCD8A"/>
<circle cx="127.611" cy="31.6954" r="7.77041" fill="#91DD9D"/>
<rect x="183.114" y="16.1545" width="336.903" height="33.3018" rx="16.6509" fill="#C7DEFF"/>
<rect x="50.4616" y="112.175" width="248.653" height="567.795" rx="4.44024" fill="white"/>
<rect opacity="0.6" x="91.5338" y="136.596" width="166.509" height="32.1917" rx="4.44024" fill="#E4EFFF"/>
<rect opacity="0.6" x="91.5338" y="194.319" width="166.509" height="32.1917" rx="4.44024" fill="#E4EFFF"/>
<rect opacity="0.6" x="91.5338" y="252.042" width="166.509" height="32.1917" rx="4.44024" fill="#E4EFFF"/>
<rect opacity="0.6" x="91.5338" y="309.765" width="166.509" height="32.1917" rx="4.44024" fill="#E4EFFF"/>
<rect opacity="0.6" x="91.5338" y="367.488" width="166.509" height="32.1917" rx="4.44024" fill="#E4EFFF"/>
<rect x="332.972" y="112.175" width="778.706" height="139.867" rx="4.44024" fill="white"/>
<rect opacity="0.6" x="473.394" y="140.481" width="286.95" height="32.1917" rx="4.44024" fill="#91BEFF"/>
<rect opacity="0.6" x="473.394" y="194.319" width="449.574" height="32.1917" rx="4.44024" fill="#E4EFFF"/>
<rect opacity="0.6" x="949.609" y="194.319" width="119.331" height="32.1917" rx="4.44024" fill="#E2EDFE"/>
<rect x="366.828" y="140.481" width="82.1444" height="82.1444" rx="4.44024" fill="#3F85ED"/>
<rect x="331.862" y="284.234" width="779.261" height="395.736" fill="white"/>
<path d="M1016.21 672.199V444.082" stroke="#EDF6FF" stroke-width="8.88047" stroke-linecap="round"/>
<path d="M818.067 672.199V444.082" stroke="#EDF6FF" stroke-width="8.88047" stroke-linecap="round"/>
<path d="M619.922 672.199V444.082" stroke="#EDF6FF" stroke-width="8.88047" stroke-linecap="round"/>
<path d="M421.776 672.199V444.082" stroke="#EDF6FF" stroke-width="8.88047" stroke-linecap="round"/>
<path d="M354.895 544.265C370.159 570.629 382.647 592.553 419.556 591.443C461.738 590.174 469.759 538.715 519.739 538.715C579.682 538.715 629.08 613.644 709.004 602.543C806.412 589.014 805.024 362.493 847.484 362.493C897.437 362.493 847.484 555.366 950.442 575.069C997.599 584.094 1069.77 554.903 1089.75 538.715" stroke="#E4EFFF" stroke-width="8.88047" stroke-linecap="round"/>
<path d="M358.78 504.858C390.695 524.562 408.733 525.117 427.049 522.064C455.078 517.392 488.657 465.173 529.175 459.623C579.96 452.666 605.769 490.317 664.047 480.714C718.908 471.675 760.622 367.766 843.599 380.531C921.303 392.486 914.088 530.667 954.882 540.102C977.638 545.366 989.572 516.791 1022.04 521.509C1048.02 525.283 1075.79 560.823 1086.42 578.122" stroke="#75ADFF" stroke-width="8.88047" stroke-linecap="round"/>
<circle cx="419.556" cy="522.896" r="9.71302" fill="#E4EFFF" stroke="#75ADFF" stroke-width="4.99526"/>
</g>
<defs>
<clipPath id="clip0_6407_141381">
<rect x="0.50882" y="0.0586548" width="1161.68" height="727.089" rx="2.22012" fill="white"/>
</clipPath>
</defs>
</svg>
