<?xml version="1.0" encoding="UTF-8"?>
<svg width="35px" height="22px" viewBox="0 0 35 22" version="1.1" xmlns="http://www.w3.org/2000/svg" xmlns:xlink="http://www.w3.org/1999/xlink">
    <!-- Generator: Sketch 51.2 (57519) - http://www.bohemiancoding.com/sketch -->
    <title>logo_bit</title>
    <desc>Created with Sketch.</desc>
    <defs>
        <linearGradient x1="50%" y1="0%" x2="50%" y2="99.0290824%" id="linearGradient-1">
            <stop stop-color="#73398D" offset="0%"></stop>
            <stop stop-color="#594A95" offset="100%"></stop>
        </linearGradient>
        <path d="M26.6196361,18.2069476 C26.6196361,22.6670388 23.9329675,25.5386044 19.1154927,25.5386044 C17.3861428,25.5386044 15.7803179,25.2025701 14.545068,24.499953 C13.1245306,23.7056902 13.1245306,22.6975874 13.1245306,21.658936 L13.1245306,6.23190824 C13.1245306,5.13215973 13.803918,4.58228547 15.1935742,4.58228547 C16.5832304,4.58228547 17.2626178,5.13215973 17.2626178,6.23190824 L17.2626178,12.0972336 C18.034649,11.577908 19.0537302,11.3335194 20.2272177,11.3335194 C23.99473,11.3335194 26.6196361,13.8079536 26.6196361,18.2069476 Z M17.2626178,21.7811303 C17.7875991,22.086616 18.4361053,22.2393588 19.146374,22.2393588 C21.1536551,22.2393588 22.3889051,20.8952218 22.3889051,18.4818847 C22.3889051,16.0379992 21.1227739,14.6327649 19.2081365,14.6327649 C18.4669865,14.6327649 17.7875991,14.8466049 17.2626178,15.2437363 L17.2626178,21.7811303 Z M33.9693732,7.30110818 C33.9693732,8.7063424 32.950292,9.68389663 31.5297546,9.68389663 C30.1092172,9.68389663 29.090136,8.7063424 29.090136,7.30110818 C29.090136,5.89587397 30.1092172,4.94886831 31.5297546,4.94886831 C32.950292,4.94886831 33.9693732,5.89587397 33.9693732,7.30110818 Z M33.5987982,12.9831422 L33.5987982,23.8278845 C33.5987982,24.927633 32.9194108,25.4775072 31.5297546,25.4775072 C30.1400984,25.4775072 29.4607109,24.927633 29.4607109,23.8278845 L29.4607109,12.9831422 C29.4607109,11.8833937 30.1400984,11.3335194 31.5297546,11.3335194 C32.9194108,11.3335194 33.5987982,11.8833937 33.5987982,12.9831422 Z M45.7351288,21.8116788 C46.877735,21.8116788 47.2174287,23.0030731 47.2174287,23.6751416 C47.2174287,24.1028216 47.0630225,24.5305016 46.4762788,24.8665358 C45.7968913,25.2636672 44.6234039,25.5386044 43.4190352,25.5386044 C41.1955853,25.5386044 39.8676916,24.6526958 39.1883042,23.430753 C38.5706792,22.3310045 38.5089167,21.017416 38.5089167,19.6121818 L38.5089167,15.0298963 L37.428073,15.0298963 C36.3163481,15.0298963 35.7604856,14.4800221 35.7604856,13.3191764 C35.7604856,12.1583308 36.3163481,11.6084565 37.428073,11.6084565 L38.5089167,11.6084565 L38.5089167,8.92018238 C38.5089167,7.82043387 39.1883042,7.27055961 40.5779604,7.27055961 C41.9676165,7.27055961 42.647004,7.82043387 42.647004,8.92018238 L42.647004,11.6084565 L45.2410289,11.6084565 C46.3527538,11.6084565 46.9086163,12.1583308 46.9086163,13.3191764 C46.9086163,14.4800221 46.3527538,15.0298963 45.2410289,15.0298963 L42.647004,15.0298963 L42.647004,19.6121818 C42.647004,20.1620561 42.647004,20.9563189 42.9249352,21.4756446 C43.141104,21.9033246 43.5425602,22.086616 44.0675414,22.086616 C44.4072351,22.086616 44.7469289,21.9949703 45.0248601,21.9338731 C45.2719101,21.872776 45.4880788,21.8116788 45.7351288,21.8116788 Z" id="path-2"></path>
    </defs>
    <g id="Design" stroke="none" stroke-width="1" fill="none" fill-rule="evenodd">
        <g id="States" transform="translate(-1161.000000, -260.000000)">
            <g id="nav" transform="translate(768.000000, 224.000000)">
                <g transform="translate(47.000000, 32.000000)" id="Logos-/-bit_logo-pressed">
                    <g transform="translate(333.000000, 0.000000)">
                        <g id="bit">
                            <use fill="#11222D" xlink:href="#path-2"></use>
                            <use fill="black" xlink:href="#path-2"></use>
                        </g>
                    </g>
                </g>
            </g>
        </g>
    </g>
</svg>